<?xml version="1.0" encoding="utf-8" standalone="no"?>
<!DOCTYPE svg PUBLIC "-//W3C//DTD SVG 1.1//EN"
  "http://www.w3.org/Graphics/SVG/1.1/DTD/svg11.dtd">
<svg xmlns:xlink="http://www.w3.org/1999/xlink" width="285.158125pt" height="183.310125pt" viewBox="0 0 285.158125 183.310125" xmlns="http://www.w3.org/2000/svg" version="1.1">
 <metadata>
  <rdf:RDF xmlns:dc="http://purl.org/dc/elements/1.1/" xmlns:cc="http://creativecommons.org/ns#" xmlns:rdf="http://www.w3.org/1999/02/22-rdf-syntax-ns#">
   <cc:Work>
    <dc:type rdf:resource="http://purl.org/dc/dcmitype/StillImage"/>
    <dc:date>2026-07-31T16:26:39.057323</dc:date>
    <dc:format>image/svg+xml</dc:format>
    <dc:creator>
     <cc:Agent>
      <dc:title>Matplotlib v3.10.5, https://matplotlib.org/</dc:title>
     </cc:Agent>
    </dc:creator>
   </cc:Work>
  </rdf:RDF>
 </metadata>
 <defs>
  <style type="text/css">*{stroke-linejoin: round; stroke-linecap: butt}</style>
 </defs>
 <g id="figure_1">
  <g id="patch_1">
   <path d="M 0 183.310125 
L 285.158125 183.310125 
L 285.158125 0 
L 0 0 
z
" style="fill: #ffffff"/>
  </g>
  <g id="axes_1">
   <g id="patch_2">
    <path d="M 21.278125 162.432 
L 277.958125 162.432 
L 277.958125 7.2 
L 21.278125 7.2 
z
" style="fill: #ffffff"/>
   </g>
   <g id="matplotlib.axis_1">
    <g id="text_1">
     <!-- Tiempo -->
     <g transform="translate(128.8775 174.030438) scale(0.1 -0.1)">
      <defs>
       <path id="DejaVuSans-Bold-54" d="M 31 4666 
L 4331 4666 
L 4331 3756 
L 2784 3756 
L 2784 0 
L 1581 0 
L 1581 3756 
L 31 3756 
L 31 4666 
z
" transform="scale(0.015625)"/>
       <path id="DejaVuSans-Bold-69" d="M 538 3500 
L 1656 3500 
L 1656 0 
L 538 0 
L 538 3500 
z
M 538 4863 
L 1656 4863 
L 1656 3950 
L 538 3950 
L 538 4863 
z
" transform="scale(0.015625)"/>
       <path id="DejaVuSans-Bold-65" d="M 4031 1759 
L 4031 1441 
L 1416 1441 
Q 1456 1047 1700 850 
Q 1944 653 2381 653 
Q 2734 653 3104 758 
Q 3475 863 3866 1075 
L 3866 213 
Q 3469 63 3072 -14 
Q 2675 -91 2278 -91 
Q 1328 -91 801 392 
Q 275 875 275 1747 
Q 275 2603 792 3093 
Q 1309 3584 2216 3584 
Q 3041 3584 3536 3087 
Q 4031 2591 4031 1759 
z
M 2881 2131 
Q 2881 2450 2695 2645 
Q 2509 2841 2209 2841 
Q 1884 2841 1681 2658 
Q 1478 2475 1428 2131 
L 2881 2131 
z
" transform="scale(0.015625)"/>
       <path id="DejaVuSans-Bold-6d" d="M 3781 2919 
Q 3994 3244 4286 3414 
Q 4578 3584 4928 3584 
Q 5531 3584 5847 3212 
Q 6163 2841 6163 2131 
L 6163 0 
L 5038 0 
L 5038 1825 
Q 5041 1866 5042 1909 
Q 5044 1953 5044 2034 
Q 5044 2406 4934 2573 
Q 4825 2741 4581 2741 
Q 4263 2741 4089 2478 
Q 3916 2216 3909 1719 
L 3909 0 
L 2784 0 
L 2784 1825 
Q 2784 2406 2684 2573 
Q 2584 2741 2328 2741 
Q 2006 2741 1831 2477 
Q 1656 2213 1656 1722 
L 1656 0 
L 531 0 
L 531 3500 
L 1656 3500 
L 1656 2988 
Q 1863 3284 2130 3434 
Q 2397 3584 2719 3584 
Q 3081 3584 3359 3409 
Q 3638 3234 3781 2919 
z
" transform="scale(0.015625)"/>
       <path id="DejaVuSans-Bold-70" d="M 1656 506 
L 1656 -1331 
L 538 -1331 
L 538 3500 
L 1656 3500 
L 1656 2988 
Q 1888 3294 2169 3439 
Q 2450 3584 2816 3584 
Q 3463 3584 3878 3070 
Q 4294 2556 4294 1747 
Q 4294 938 3878 423 
Q 3463 -91 2816 -91 
Q 2450 -91 2169 54 
Q 1888 200 1656 506 
z
M 2400 2772 
Q 2041 2772 1848 2508 
Q 1656 2244 1656 1747 
Q 1656 1250 1848 986 
Q 2041 722 2400 722 
Q 2759 722 2948 984 
Q 3138 1247 3138 1747 
Q 3138 2247 2948 2509 
Q 2759 2772 2400 2772 
z
" transform="scale(0.015625)"/>
       <path id="DejaVuSans-Bold-6f" d="M 2203 2784 
Q 1831 2784 1636 2517 
Q 1441 2250 1441 1747 
Q 1441 1244 1636 976 
Q 1831 709 2203 709 
Q 2569 709 2762 976 
Q 2956 1244 2956 1747 
Q 2956 2250 2762 2517 
Q 2569 2784 2203 2784 
z
M 2203 3584 
Q 3106 3584 3614 3096 
Q 4122 2609 4122 1747 
Q 4122 884 3614 396 
Q 3106 -91 2203 -91 
Q 1297 -91 786 396 
Q 275 884 275 1747 
Q 275 2609 786 3096 
Q 1297 3584 2203 3584 
z
" transform="scale(0.015625)"/>
      </defs>
      <use xlink:href="#DejaVuSans-Bold-54"/>
      <use xlink:href="#DejaVuSans-Bold-69" transform="translate(68.212891 0)"/>
      <use xlink:href="#DejaVuSans-Bold-65" transform="translate(102.490234 0)"/>
      <use xlink:href="#DejaVuSans-Bold-6d" transform="translate(170.3125 0)"/>
      <use xlink:href="#DejaVuSans-Bold-70" transform="translate(274.511719 0)"/>
      <use xlink:href="#DejaVuSans-Bold-6f" transform="translate(346.09375 0)"/>
     </g>
    </g>
   </g>
   <g id="matplotlib.axis_2">
    <g id="text_2">
     <!-- Proporción de líquido -->
     <g transform="translate(15.198437 145.280063) rotate(-90) scale(0.1 -0.1)">
      <defs>
       <path id="DejaVuSans-Bold-50" d="M 588 4666 
L 2584 4666 
Q 3475 4666 3951 4270 
Q 4428 3875 4428 3144 
Q 4428 2409 3951 2014 
Q 3475 1619 2584 1619 
L 1791 1619 
L 1791 0 
L 588 0 
L 588 4666 
z
M 1791 3794 
L 1791 2491 
L 2456 2491 
Q 2806 2491 2997 2661 
Q 3188 2831 3188 3144 
Q 3188 3456 2997 3625 
Q 2806 3794 2456 3794 
L 1791 3794 
z
" transform="scale(0.015625)"/>
       <path id="DejaVuSans-Bold-72" d="M 3138 2547 
Q 2991 2616 2845 2648 
Q 2700 2681 2553 2681 
Q 2122 2681 1889 2404 
Q 1656 2128 1656 1613 
L 1656 0 
L 538 0 
L 538 3500 
L 1656 3500 
L 1656 2925 
Q 1872 3269 2151 3426 
Q 2431 3584 2822 3584 
Q 2878 3584 2943 3579 
Q 3009 3575 3134 3559 
L 3138 2547 
z
" transform="scale(0.015625)"/>
       <path id="DejaVuSans-Bold-63" d="M 3366 3391 
L 3366 2478 
Q 3138 2634 2908 2709 
Q 2678 2784 2431 2784 
Q 1963 2784 1702 2511 
Q 1441 2238 1441 1747 
Q 1441 1256 1702 982 
Q 1963 709 2431 709 
Q 2694 709 2930 787 
Q 3166 866 3366 1019 
L 3366 103 
Q 3103 6 2833 -42 
Q 2563 -91 2291 -91 
Q 1344 -91 809 395 
Q 275 881 275 1747 
Q 275 2613 809 3098 
Q 1344 3584 2291 3584 
Q 2566 3584 2833 3536 
Q 3100 3488 3366 3391 
z
" transform="scale(0.015625)"/>
       <path id="DejaVuSans-Bold-f3" d="M 2203 2784 
Q 1831 2784 1636 2517 
Q 1441 2250 1441 1747 
Q 1441 1244 1636 976 
Q 1831 709 2203 709 
Q 2569 709 2762 976 
Q 2956 1244 2956 1747 
Q 2956 2250 2762 2517 
Q 2569 2784 2203 2784 
z
M 2203 3584 
Q 3106 3584 3614 3096 
Q 4122 2609 4122 1747 
Q 4122 884 3614 396 
Q 3106 -91 2203 -91 
Q 1297 -91 786 396 
Q 275 884 275 1747 
Q 275 2609 786 3096 
Q 1297 3584 2203 3584 
z
M 2694 5119 
L 3578 5119 
L 2425 3944 
L 1813 3944 
L 2694 5119 
z
" transform="scale(0.015625)"/>
       <path id="DejaVuSans-Bold-6e" d="M 4056 2131 
L 4056 0 
L 2931 0 
L 2931 347 
L 2931 1631 
Q 2931 2084 2911 2256 
Q 2891 2428 2841 2509 
Q 2775 2619 2662 2680 
Q 2550 2741 2406 2741 
Q 2056 2741 1856 2470 
Q 1656 2200 1656 1722 
L 1656 0 
L 538 0 
L 538 3500 
L 1656 3500 
L 1656 2988 
Q 1909 3294 2193 3439 
Q 2478 3584 2822 3584 
Q 3428 3584 3742 3212 
Q 4056 2841 4056 2131 
z
" transform="scale(0.015625)"/>
       <path id="DejaVuSans-Bold-20" transform="scale(0.015625)"/>
       <path id="DejaVuSans-Bold-64" d="M 2919 2988 
L 2919 4863 
L 4044 4863 
L 4044 0 
L 2919 0 
L 2919 506 
Q 2688 197 2409 53 
Q 2131 -91 1766 -91 
Q 1119 -91 703 423 
Q 288 938 288 1747 
Q 288 2556 703 3070 
Q 1119 3584 1766 3584 
Q 2128 3584 2408 3439 
Q 2688 3294 2919 2988 
z
M 2181 722 
Q 2541 722 2730 984 
Q 2919 1247 2919 1747 
Q 2919 2247 2730 2509 
Q 2541 2772 2181 2772 
Q 1825 2772 1636 2509 
Q 1447 2247 1447 1747 
Q 1447 1247 1636 984 
Q 1825 722 2181 722 
z
" transform="scale(0.015625)"/>
       <path id="DejaVuSans-Bold-6c" d="M 538 4863 
L 1656 4863 
L 1656 0 
L 538 0 
L 538 4863 
z
" transform="scale(0.015625)"/>
       <path id="DejaVuSans-Bold-ed" d="M 538 3500 
L 1656 3500 
L 1656 0 
L 538 0 
L 538 3500 
z
M 1590 5119 
L 2474 5119 
L 1321 3944 
L 709 3944 
L 1590 5119 
z
" transform="scale(0.015625)"/>
       <path id="DejaVuSans-Bold-71" d="M 2181 2772 
Q 1825 2772 1636 2509 
Q 1447 2247 1447 1747 
Q 1447 1247 1636 984 
Q 1825 722 2181 722 
Q 2541 722 2730 984 
Q 2919 1247 2919 1747 
Q 2919 2247 2730 2509 
Q 2541 2772 2181 2772 
z
M 2919 506 
Q 2688 197 2409 53 
Q 2131 -91 1766 -91 
Q 1119 -91 703 423 
Q 288 938 288 1747 
Q 288 2556 703 3067 
Q 1119 3578 1766 3578 
Q 2131 3578 2409 3434 
Q 2688 3291 2919 2981 
L 2919 3500 
L 4044 3500 
L 4044 -1331 
L 2919 -1331 
L 2919 506 
z
" transform="scale(0.015625)"/>
       <path id="DejaVuSans-Bold-75" d="M 500 1363 
L 500 3500 
L 1625 3500 
L 1625 3150 
Q 1625 2866 1622 2436 
Q 1619 2006 1619 1863 
Q 1619 1441 1641 1255 
Q 1663 1069 1716 984 
Q 1784 875 1895 815 
Q 2006 756 2150 756 
Q 2500 756 2700 1025 
Q 2900 1294 2900 1772 
L 2900 3500 
L 4019 3500 
L 4019 0 
L 2900 0 
L 2900 506 
Q 2647 200 2364 54 
Q 2081 -91 1741 -91 
Q 1134 -91 817 281 
Q 500 653 500 1363 
z
" transform="scale(0.015625)"/>
      </defs>
      <use xlink:href="#DejaVuSans-Bold-50"/>
      <use xlink:href="#DejaVuSans-Bold-72" transform="translate(73.291016 0)"/>
      <use xlink:href="#DejaVuSans-Bold-6f" transform="translate(122.607422 0)"/>
      <use xlink:href="#DejaVuSans-Bold-70" transform="translate(191.308594 0)"/>
      <use xlink:href="#DejaVuSans-Bold-6f" transform="translate(262.890625 0)"/>
      <use xlink:href="#DejaVuSans-Bold-72" transform="translate(331.591797 0)"/>
      <use xlink:href="#DejaVuSans-Bold-63" transform="translate(380.908203 0)"/>
      <use xlink:href="#DejaVuSans-Bold-69" transform="translate(440.185547 0)"/>
      <use xlink:href="#DejaVuSans-Bold-f3" transform="translate(474.462891 0)"/>
      <use xlink:href="#DejaVuSans-Bold-6e" transform="translate(543.164062 0)"/>
      <use xlink:href="#DejaVuSans-Bold-20" transform="translate(614.355469 0)"/>
      <use xlink:href="#DejaVuSans-Bold-64" transform="translate(649.169922 0)"/>
      <use xlink:href="#DejaVuSans-Bold-65" transform="translate(720.751953 0)"/>
      <use xlink:href="#DejaVuSans-Bold-20" transform="translate(788.574219 0)"/>
      <use xlink:href="#DejaVuSans-Bold-6c" transform="translate(823.388672 0)"/>
      <use xlink:href="#DejaVuSans-Bold-ed" transform="translate(857.666016 0)"/>
      <use xlink:href="#DejaVuSans-Bold-71" transform="translate(891.943359 0)"/>
      <use xlink:href="#DejaVuSans-Bold-75" transform="translate(963.525391 0)"/>
      <use xlink:href="#DejaVuSans-Bold-69" transform="translate(1034.716797 0)"/>
      <use xlink:href="#DejaVuSans-Bold-64" transform="translate(1068.994141 0)"/>
      <use xlink:href="#DejaVuSans-Bold-6f" transform="translate(1140.576172 0)"/>
     </g>
    </g>
   </g>
   <g id="line2d_1">
    <path d="M 21.278125 155.682783 
L 23.569911 155.669284 
L 25.861696 155.628789 
L 28.153482 155.561297 
L 30.445268 155.466808 
L 32.737054 155.345322 
L 35.028839 155.196839 
L 37.320625 155.021359 
L 39.612411 154.818883 
L 41.904196 154.589409 
L 44.195982 154.332939 
L 46.487768 154.049472 
L 48.779554 153.739008 
L 51.071339 153.401547 
L 53.363125 153.037089 
L 55.654911 152.645635 
L 57.946696 152.227183 
L 60.238482 151.781735 
L 62.530268 151.30929 
L 64.822054 150.809848 
L 67.113839 150.283409 
L 69.405625 149.729973 
L 71.697411 149.14954 
L 73.989196 148.542111 
L 76.280982 147.907684 
L 78.572768 147.246261 
L 80.864554 146.557841 
L 83.156339 145.842424 
L 85.448125 145.10001 
L 87.739911 144.330599 
L 90.031696 143.534191 
L 92.323482 142.710787 
L 94.615268 141.860385 
L 96.907054 140.982987 
L 99.198839 140.078592 
L 101.490625 139.1472 
L 103.782411 138.188811 
L 106.074196 137.203425 
L 108.365982 136.191043 
L 110.657768 135.151663 
L 112.949554 134.085287 
L 115.241339 132.991914 
L 117.533125 131.871544 
L 119.824911 130.724177 
L 122.116696 129.549813 
L 124.408482 128.348452 
L 126.700268 127.120095 
L 128.992054 125.86474 
L 131.283839 124.582389 
L 133.575625 123.273041 
L 135.867411 121.936696 
L 138.159196 120.573354 
L 140.450982 119.183015 
L 142.742768 117.765679 
L 145.034554 116.321347 
L 147.326339 114.850017 
L 149.618125 113.351691 
L 151.909911 111.826368 
L 154.201696 110.274048 
L 156.493482 108.694731 
L 158.785268 107.088417 
L 161.077054 105.455107 
L 163.368839 103.794799 
L 165.660625 102.107495 
L 167.952411 100.393194 
L 170.244196 98.651896 
L 172.535982 96.883601 
L 174.827768 95.088309 
L 177.119554 93.26602 
L 179.411339 91.416735 
L 181.703125 89.540452 
L 183.994911 87.637173 
L 186.286696 85.706897 
L 188.578482 83.749624 
L 190.870268 81.765354 
L 193.162054 79.754087 
L 195.453839 77.715823 
L 197.745625 75.650563 
L 200.037411 73.558305 
L 202.329196 71.439051 
L 204.620982 69.2928 
L 206.912768 67.119552 
L 209.204554 64.919307 
L 211.496339 62.692065 
L 213.788125 60.437827 
L 216.079911 58.156591 
L 218.371696 55.848359 
L 220.663482 53.51313 
L 222.955268 51.150904 
L 225.247054 48.761681 
L 227.538839 46.345461 
L 229.830625 43.902244 
L 232.122411 41.432031 
L 234.414196 38.93482 
L 236.705982 36.410613 
L 238.997768 33.859409 
L 241.289554 31.281208 
L 243.581339 28.67601 
L 245.873125 26.043815 
L 248.164911 23.384623 
L 250.456696 20.698435 
" clip-path="url(#p5545c8c4fc)" style="fill: none; stroke: #e8792b; stroke-width: 2; stroke-linecap: square"/>
   </g>
   <g id="line2d_2">
    <path d="M 21.278125 20.698435 
L 23.569911 20.711933 
L 25.861696 20.752429 
L 28.153482 20.819921 
L 30.445268 20.91441 
L 32.737054 21.035896 
L 35.028839 21.184378 
L 37.320625 21.359858 
L 39.612411 21.562335 
L 41.904196 21.791808 
L 44.195982 22.048278 
L 46.487768 22.331745 
L 48.779554 22.642209 
L 51.071339 22.97967 
L 53.363125 23.344128 
L 55.654911 23.735583 
L 57.946696 24.154034 
L 60.238482 24.599482 
L 62.530268 25.071928 
L 64.822054 25.57137 
L 67.113839 26.097809 
L 69.405625 26.651245 
L 71.697411 27.231677 
L 73.989196 27.839107 
L 76.280982 28.473533 
L 78.572768 29.134957 
L 80.864554 29.823377 
L 83.156339 30.538794 
L 85.448125 31.281208 
L 87.739911 32.050618 
L 90.031696 32.847026 
L 92.323482 33.670431 
L 94.615268 34.520832 
L 96.907054 35.39823 
L 99.198839 36.302625 
L 101.490625 37.234017 
L 103.782411 38.192406 
L 106.074196 39.177792 
L 108.365982 40.190175 
L 110.657768 41.229554 
L 112.949554 42.29593 
L 115.241339 43.389304 
L 117.533125 44.509674 
L 119.824911 45.657041 
L 122.116696 46.831405 
L 124.408482 48.032765 
L 126.700268 49.261123 
L 128.992054 50.516477 
L 131.283839 51.798829 
L 133.575625 53.108177 
L 135.867411 54.444522 
L 138.159196 55.807864 
L 140.450982 57.198202 
L 142.742768 58.615538 
L 145.034554 60.059871 
L 147.326339 61.5312 
L 149.618125 63.029526 
L 151.909911 64.554849 
L 154.201696 66.107169 
L 156.493482 67.686486 
L 158.785268 69.2928 
L 161.077054 70.926111 
L 163.368839 72.586418 
L 165.660625 74.273722 
L 167.952411 75.988024 
L 170.244196 77.729322 
L 172.535982 79.497617 
L 174.827768 81.292909 
L 177.119554 83.115197 
L 179.411339 84.964483 
L 181.703125 86.840765 
L 183.994911 88.744045 
L 186.286696 90.674321 
L 188.578482 92.631594 
L 190.870268 94.615864 
L 193.162054 96.62713 
L 195.453839 98.665394 
L 197.745625 100.730655 
L 200.037411 102.822912 
L 202.329196 104.942166 
L 204.620982 107.088417 
L 206.912768 109.261665 
L 209.204554 111.46191 
L 211.496339 113.689152 
L 213.788125 115.943391 
L 216.079911 118.224626 
L 218.371696 120.532858 
L 220.663482 122.868088 
L 222.955268 125.230314 
L 225.247054 127.619537 
L 227.538839 130.035757 
L 229.830625 132.478973 
L 232.122411 134.949187 
L 234.414196 137.446397 
L 236.705982 139.970605 
L 238.997768 142.521809 
L 241.289554 145.10001 
L 243.581339 147.705208 
L 245.873125 150.337402 
L 248.164911 152.996594 
L 250.456696 155.682783 
" clip-path="url(#p5545c8c4fc)" style="fill: none; stroke: #8e44ad; stroke-width: 2; stroke-linecap: square"/>
   </g>
   <g id="patch_3">
    <path d="M 21.278125 162.432 
L 21.278125 7.2 
" style="fill: none; stroke: #000000; stroke-width: 0.8; stroke-linejoin: miter; stroke-linecap: square"/>
   </g>
   <g id="patch_4">
    <path d="M 21.278125 162.432 
L 277.958125 162.432 
" style="fill: none; stroke: #000000; stroke-width: 0.8; stroke-linejoin: miter; stroke-linecap: square"/>
   </g>
   <g id="text_3">
    <!-- P -->
    <g transform="translate(255.040268 23.733747) scale(0.11 -0.11)">
     <defs>
      <path id="DejaVuSans-Oblique-50" d="M 1081 4666 
L 2541 4666 
Q 3178 4666 3512 4369 
Q 3847 4072 3847 3500 
Q 3847 2731 3353 2303 
Q 2859 1875 1966 1875 
L 1172 1875 
L 806 0 
L 172 0 
L 1081 4666 
z
M 1613 4147 
L 1275 2394 
L 2069 2394 
Q 2606 2394 2893 2669 
Q 3181 2944 3181 3456 
Q 3181 3784 2986 3965 
Q 2791 4147 2438 4147 
L 1613 4147 
z
" transform="scale(0.015625)"/>
     </defs>
     <use xlink:href="#DejaVuSans-Oblique-50"/>
    </g>
   </g>
   <g id="text_4">
    <!-- Q -->
    <g transform="translate(255.040268 158.718095) scale(0.11 -0.11)">
     <defs>
      <path id="DejaVuSans-Oblique-51" d="M 2309 -84 
Q 2275 -88 2237 -89 
Q 2200 -91 2125 -91 
Q 1250 -91 756 411 
Q 263 913 263 1797 
Q 263 2319 452 2844 
Q 641 3369 978 3788 
Q 1369 4269 1858 4509 
Q 2347 4750 2938 4750 
Q 3794 4750 4287 4245 
Q 4781 3741 4781 2869 
Q 4781 1928 4265 1147 
Q 3750 366 2919 44 
L 3553 -825 
L 2847 -825 
L 2309 -84 
z
M 2919 4238 
Q 2400 4238 2003 3986 
Q 1606 3734 1313 3219 
Q 1125 2891 1026 2522 
Q 928 2153 928 1778 
Q 928 1128 1239 775 
Q 1550 422 2119 422 
Q 2631 422 3032 676 
Q 3434 931 3719 1434 
Q 3909 1772 4009 2142 
Q 4109 2513 4109 2881 
Q 4109 3528 3796 3883 
Q 3484 4238 2919 4238 
z
" transform="scale(0.015625)"/>
     </defs>
     <use xlink:href="#DejaVuSans-Oblique-51"/>
    </g>
   </g>
  </g>
 </g>
 <defs>
  <clipPath id="p5545c8c4fc">
   <rect x="21.278125" y="7.2" width="256.68" height="155.232"/>
  </clipPath>
 </defs>
</svg>
